<svg width="119" height="24" viewBox="0 0 119 24" fill="none" xmlns="http://www.w3.org/2000/svg">
<path d="M22.4232 12.7L26.3482 24H36.5529L45.8021 0H34.7441L30.9898 10.7667L27.2014 0H18.4642L14.1297 10.7667L11.1946 0H0L7.5768 24H17.6792L22.4232 12.7Z" fill="#FAFAFA"/>
<path d="M58.5744 21L59.5641 24H70.588L61.0317 0H48.3354L38.5061 24H49.5641L50.5539 21H58.5744ZM52.8406 14.2L54.3764 9.6L54.6153 8.5L54.8542 9.63333L56.3559 14.2H52.8406Z" fill="#FAFAFA"/>
<path d="M70.8301 24H93.4582V14.3H82.0588V0H70.8301V24Z" fill="#FAFAFA"/>
<path d="M95.5942 24H118.222V14.3H106.823V0H95.5942V24Z" fill="#FAFAFA"/>
</svg>
