<svg width="24" height="24" viewBox="0 0 24 24" fill="none" xmlns="http://www.w3.org/2000/svg">
<g clip-path="url(#clip0_1187_3678)">
<path d="M8.99515 3.57185C10.63 1.89923 13.3703 1.89923 15.0052 3.57185C15.817 4.40239 16.8521 4.98615 17.9874 5.2573C20.2973 5.80904 21.6341 8.11684 20.9816 10.3028C20.6507 11.4113 20.6507 12.5899 20.9816 13.6984C21.6341 15.8844 20.2973 18.1922 17.9874 18.7439C16.8521 19.0151 15.817 19.5988 15.0052 20.4293C13.3703 22.102 10.63 22.102 8.99515 20.4293C8.18337 19.5988 7.14821 19.0151 6.01297 18.7439C3.70307 18.1922 2.36621 15.8844 3.01872 13.6984C3.34964 12.5899 3.34964 11.4113 3.01872 10.3028C2.36621 8.11684 3.70307 5.80904 6.01297 5.2573C7.14821 4.98615 8.18337 4.40239 8.99515 3.57185Z" stroke="white" stroke-width="2"/>
<path d="M9.42609 11.8243L12.0027 8.20559L14.5746 11.8242L12.002 15.7098L9.42609 11.8243Z" stroke="white" stroke-width="2"/>
</g>
<defs>
<clipPath id="clip0_1187_3678">
<rect width="24" height="24" fill="white"/>
</clipPath>
</defs>
</svg>
